:FULLY-SPECIFIED
:FORCE-ALL-JOINTS-BE-3DOF
:DEGREES
2854
root -6.08121 13.2661 -28.7955 161.068 -66.8344 -159.329
lfemur -65.8618 45.1344 -6.05785
ltibia 77.143 -0 0
lfoot -4.91781 -6.23516 0.000975085
ltoes -29.0268 0 0
rfemur -31.3503 -19.1732 22.2173
rtibia 88.8764 -0 0
rfoot -40.8916 -29.006 -0.00087619
rtoes -13.9782 0 0
lowerback 15.6237 5.62286 1.02893
upperback -4.52103 7.99437 1.63889
thorax -13.9421 3.69525 -0.931587
lowerneck -2.56002 9.62382 2.19729
upperneck 9.14497 12.53 2.06586
head 3.40122 6.32995 0.767776
lclavicle -3.13112e-14 -1.66864e-14 -9.26025e-32
lhumerus 5.32815 12.3336 84.2989
lradius 93.422 -0 0
lwrist -19.0262 0 0
lhand -39.5638 28.6285 6.33715e-05
lfingers 7.12502 -0 0
lthumb -12.5473 58.2316 6.18642e-05
rclavicle -3.13112e-14 -1.66864e-14 -9.26025e-32
rhumerus -59.1836 51.1021 -111.593
rradius 113.572 -0 0
rwrist -83.7513 0 0
rhand 7.88027 -26.2331 0.000214425
rfingers 7.12502 -0 0
rthumb 33.1132 -53.2092 0.000251041
2855
root -6.08273 13.2621 -28.7942 161.013 -66.8448 -159.253
lfemur -65.9259 45.1229 -6.053
ltibia 77.1915 -0 0
lfoot -4.95191 -6.2525 0.000932728
ltoes -29.0787 0 0
rfemur -31.3798 -19.1637 22.252
rtibia 88.9116 -0 0
rfoot -40.8834 -29.0705 -0.000838127
rtoes -13.9963 0 0
lowerback 15.6458 5.617 1.06208
upperback -4.52714 7.99469 1.64369
thorax -13.9587 3.69206 -0.947104
lowerneck -2.56562 9.62512 2.19823
upperneck 9.1486 12.5313 2.06741
head 3.4035 6.33073 0.768662
lclavicle -3.10603e-14 -1.64626e-14 -8.858e-32
lhumerus 5.34619 12.342 84.3011
lradius 93.4074 -0 0
lwrist -19.0173 0 0
lhand -39.5611 28.6425 6.06187e-05
lfingers 7.12502 -0 0
lthumb -12.5446 58.2458 5.91768e-05
rclavicle -3.10603e-14 -1.64626e-14 -8.858e-32
rhumerus -59.186 51.1222 -111.594
rradius 113.568 -0 0
rwrist -83.7263 0 0
rhand 7.89247 -26.2224 0.00020511
rfingers 7.12502 -0 0
rthumb 33.1248 -53.1961 0.000240136
2856
root -6.08422 13.2581 -28.793 160.959 -66.855 -159.178
lfemur -65.9886 45.1116 -6.04825
ltibia 77.239 -0 0
lfoot -4.98525 -6.26945 0.000881335
ltoes -29.1295 0 0
rfemur -31.4087 -19.1544 22.286
rtibia 88.946 -0 0
rfoot -40.8753 -29.1335 -0.000791945
rtoes -14.014 0 0
lowerback 15.6673 5.61125 1.09448
upperback -4.53311 7.995 1.64837
thorax -13.9749 3.68893 -0.962275
lowerneck -2.5711 9.62639 2.19916
upperneck 9.15216 12.5326 2.06893
head 3.40574 6.33149 0.769528
lclavicle -3.0815e-14 -1.62438e-14 -8.36993e-32
lhumerus 5.36383 12.3503 84.3032
lradius 93.3931 -0 0
lwrist -19.0087 0 0
lhand -39.5584 28.6562 5.72786e-05
lfingers 7.12502 -0 0
lthumb -12.542 58.2596 5.59162e-05
rclavicle -3.0815e-14 -1.62438e-14 -8.36993e-32
rhumerus -59.1884 51.1419 -111.594
rradius 113.563 -0 0
rwrist -83.7018 0 0
rhand 7.9044 -26.212 0.000193809
rfingers 7.12502 -0 0
rthumb 33.1361 -53.1832 0.000226904
2857
root -6.08567 13.2543 -28.7918 160.906 -66.8648 -159.105
lfemur -66.0495 45.1006 -6.04361
ltibia 77.2851 -0 0
lfoot -5.01767 -6.28593 0.000821914
ltoes -29.1788 0 0
rfemur -31.4368 -19.1453 22.319
rtibia 88.9794 -0 0
rfoot -40.8675 -29.1948 -0.00073855
rtoes -14.0312 0 0
lowerback 15.6883 5.60565 1.12598
upperback -4.53892 7.99531 1.65293
thorax -13.9907 3.68588 -0.977022
lowerneck -2.57643 9.62762 2.20006
upperneck 9.15562 12.5339 2.0704
head 3.40791 6.33223 0.77037
lclavicle -3.05765e-14 -1.6031e-14 -7.80562e-32
lhumerus 5.38097 12.3583 84.3052
lradius 93.3792 -0 0
lwrist -19.0003 0 0
lhand -39.5558 28.6695 5.34169e-05
lfingers 7.12502 -0 0
lthumb -12.5395 58.2731 5.21463e-05
rclavicle -3.05765e-14 -1.6031e-14 -7.80562e-32
rhumerus -59.1907 51.161 -111.594
rradius 113.559 -0 0
rwrist -83.678 0 0
rhand 7.91599 -26.2019 0.000180742
rfingers 7.12502 -0 0
rthumb 33.1471 -53.1708 0.000211606
